<svg width="52" height="56" viewBox="0 0 52 56" fill="none" xmlns="http://www.w3.org/2000/svg">
<path d="M29 53C29 54.1 28.1 55 27 55C25.9 55 25 54.1 25 53V37H29V53Z" stroke="#54386D" stroke-width="2" stroke-miterlimit="10" stroke-linecap="round" stroke-linejoin="round"/>
<path d="M47 4C47 2.3 45.7 1 44 1H6C4.3 1 3 2.3 3 4V14C3 15.7 4.3 17 6 17H44C45.7 17 47 15.7 47 14V4Z" stroke="#54386D" stroke-width="2" stroke-miterlimit="10" stroke-linecap="round" stroke-linejoin="round"/>
<path d="M3 7H1V11H3V7Z" stroke="#54386D" stroke-width="2" stroke-miterlimit="10" stroke-linecap="round" stroke-linejoin="round"/>
<path d="M27 37V26C27 24.3 28.3 23 30 23H48C49.7 23 51 21.7 51 20V12C51 10.3 49.7 9 48 9H47" stroke="#54386D" stroke-width="2" stroke-miterlimit="10" stroke-linecap="round" stroke-linejoin="round"/>
</svg>
