<svg width="52" height="52" viewBox="0 0 52 52" fill="none" xmlns="http://www.w3.org/2000/svg">
<path d="M51 6C51 3.2 48.8 1 46 1H6C3.2 1 1 3.2 1 6V46C1 48.8 3.2 51 6 51H46C48.8 51 51 48.8 51 46V6Z" stroke="#54386D" stroke-width="2" stroke-miterlimit="10" stroke-linecap="round" stroke-linejoin="round"/>
<path d="M26 47C37.598 47 47 37.598 47 26C47 14.402 37.598 5 26 5C14.402 5 5 14.402 5 26C5 37.598 14.402 47 26 47Z" stroke="#54386D" stroke-width="2" stroke-miterlimit="10" stroke-linecap="round" stroke-linejoin="round"/>
<path d="M26 43C35.3888 43 43 35.3888 43 26C43 16.6112 35.3888 9 26 9C16.6112 9 9 16.6112 9 26C9 35.3888 16.6112 43 26 43Z" stroke="#54386D" stroke-width="2" stroke-miterlimit="10" stroke-linecap="round" stroke-linejoin="round"/>
<path d="M9.89999 21H42.1" stroke="#54386D" stroke-width="2" stroke-miterlimit="10" stroke-linecap="round" stroke-linejoin="round"/>
<path d="M9.89999 31H42.1" stroke="#54386D" stroke-width="2" stroke-miterlimit="10" stroke-linecap="round" stroke-linejoin="round"/>
<path d="M26 25C28.7614 25 31 24.1046 31 23C31 21.8954 28.7614 21 26 21C23.2386 21 21 21.8954 21 23C21 24.1046 23.2386 25 26 25Z" stroke="#54386D" stroke-width="2" stroke-miterlimit="10" stroke-linecap="round" stroke-linejoin="round"/>
<path d="M17 21V31" stroke="#54386D" stroke-width="2" stroke-miterlimit="10" stroke-linecap="round" stroke-linejoin="round"/>
<path d="M35 21V31" stroke="#54386D" stroke-width="2" stroke-miterlimit="10" stroke-linecap="round" stroke-linejoin="round"/>
</svg>
