<svg width="64" height="46" viewBox="0 0 64 46" fill="none" xmlns="http://www.w3.org/2000/svg">
<g clip-path="url(#clip0)">
<path d="M30.8 41.8001C26.5 46.1001 19.5 46.1001 15.2 41.8001L4.2 30.8001C-0.100002 26.5001 -0.100002 19.5001 4.2 15.2001L15.2 4.2001C19.5 -0.0999024 26.5 -0.0999024 30.8 4.2001L47.8 21.2001C48.8 22.2001 48.8 23.7001 47.8 24.7001L30.8 41.8001Z" stroke="#54386D" stroke-width="2" stroke-miterlimit="10" stroke-linecap="round" stroke-linejoin="round"/>
<path d="M35 23C35 29.6 29.6 35 23 35C16.4 35 11 29.6 11 23C11 16.4 16.4 11 23 11C29.6 11 35 16.4 35 23Z" stroke="#54386D" stroke-width="2" stroke-miterlimit="10" stroke-linecap="round" stroke-linejoin="round"/>
<path d="M48.1 24.4L59 13" stroke="#54386D" stroke-width="2" stroke-miterlimit="10" stroke-linecap="round" stroke-linejoin="round"/>
<path d="M59 13L63 17" stroke="#54386D" stroke-width="2" stroke-miterlimit="10" stroke-linecap="round" stroke-linejoin="round"/>
</g>
<defs>
<clipPath id="clip0">
<rect width="64" height="46" fill="white"/>
</clipPath>
</defs>
</svg>
