<svg width="56" height="52" viewBox="0 0 56 52" fill="none" xmlns="http://www.w3.org/2000/svg">
<path d="M55 1H39V9H55V1Z" stroke="#54386D" stroke-width="2" stroke-miterlimit="10" stroke-linecap="round" stroke-linejoin="round"/>
<path d="M29 23H13V31H29V23Z" stroke="#54386D" stroke-width="2" stroke-miterlimit="10" stroke-linecap="round" stroke-linejoin="round"/>
<path d="M1 3L1 19H9L9 3H1Z" stroke="#54386D" stroke-width="2" stroke-miterlimit="10" stroke-linecap="round" stroke-linejoin="round"/>
<path d="M15 23V21C15 18.8 13.2 17 11 17H9" stroke="#54386D" stroke-width="2" stroke-miterlimit="10" stroke-linecap="round" stroke-linejoin="round"/>
<path d="M27 23V21C27 12.2 19.8 5 11 5H9" stroke="#54386D" stroke-width="2" stroke-miterlimit="10" stroke-linecap="round" stroke-linejoin="round"/>
<path d="M53 9V32C53 42.5 44.5 51 34 51C23.5 51 15 42.5 15 32V31" stroke="#54386D" stroke-width="2" stroke-miterlimit="10" stroke-linecap="round" stroke-linejoin="round"/>
<path d="M41 9V32C41 35.9 37.9 39 34 39C30.1 39 27 35.9 27 32V31" stroke="#54386D" stroke-width="2" stroke-miterlimit="10" stroke-linecap="round" stroke-linejoin="round"/>
</svg>
